HIERARCHY
ROOT Hips
{
	OFFSET 0.000000 0.000000 0.000000
	CHANNELS 6 Xposition Yposition Zposition Zrotation Yrotation Xrotation 
	JOINT LeftUpLeg
	{
		OFFSET 1.363060 -1.794630 0.839290
		CHANNELS 3 Zrotation Yrotation Xrotation
		JOINT LeftLeg
		{
			OFFSET 2.448110 -6.726130 0.000000
			CHANNELS 3 Zrotation Yrotation Xrotation
			JOINT LeftFoot
			{
				OFFSET 2.562200 -7.039590 0.000000
				CHANNELS 3 Zrotation Yrotation Xrotation
				JOINT LeftToeBase
				{
					OFFSET 0.157640 -0.433110 2.322550
					CHANNELS 3 Zrotation Yrotation Xrotation
				}
			}
		}
	}
	JOINT RightUpLeg
	{
		OFFSET -1.305520 -1.794630 0.839290
		CHANNELS 3 Zrotation Yrotation Xrotation
		JOINT RightLeg
		{
			OFFSET -2.542530 -6.985550 0.000000
			CHANNELS 3 Zrotation Yrotation Xrotation
			JOINT RightFoot
			{
				OFFSET -2.568260 -7.056230 0.000000
				CHANNELS 3 Zrotation Yrotation Xrotation
				JOINT RightToeBase
				{
					OFFSET -0.164730 -0.452590 2.363150
					CHANNELS 3 Zrotation Yrotation Xrotation
				}
			}
		}
	}
	JOINT Spine
	{
		OFFSET 0.028270 2.035590 -0.193380
		CHANNELS 3 Zrotation Yrotation Xrotation
		JOINT Spine1
		{
			OFFSET 0.056720 2.048850 -0.042750
			CHANNELS 3 Zrotation Yrotation Xrotation
			JOINT Neck1
			{
				OFFSET -0.054170 1.746240 0.172020
				CHANNELS 3 Zrotation Yrotation Xrotation
				JOINT Head
				{
					OFFSET 0.104070 1.761360 -0.123970
					CHANNELS 3 Zrotation Yrotation Xrotation
				}
			}
			JOINT LeftArm
			{
				OFFSET 3.362410 1.200890 -0.311210
				CHANNELS 3 Zrotation Yrotation Xrotation
				JOINT LeftForeArm
				{
					OFFSET 4.983000 -0.000000 -0.000000
					CHANNELS 3 Zrotation Yrotation Xrotation
					JOINT LeftHand
					{
						OFFSET 3.483560 -0.000000 -0.000000
						CHANNELS 3 Zrotation Yrotation Xrotation
						JOINT LeftHandIndex1
						{
							OFFSET 0.715260 -0.000000 -0.000000
							CHANNELS 3 Zrotation Yrotation Xrotation
						}
					}
				}
			}
			JOINT RightArm
			{
				OFFSET -3.136600 1.374050 -0.404650
				CHANNELS 3 Zrotation Yrotation Xrotation
				JOINT RightForeArm
				{
					OFFSET -5.241900 -0.000000 -0.000000
					CHANNELS 3 Zrotation Yrotation Xrotation
					JOINT RightHand
					{
						OFFSET -3.444170 -0.000000 -0.000000
						CHANNELS 3 Zrotation Yrotation Xrotation
						JOINT RightHandIndex1
						{
							OFFSET -0.622530 -0.000000 -0.000000
							CHANNELS 3 Zrotation Yrotation Xrotation
						}
					}
				}
			}
		}
	}
}
MOTION
Frames: 12
Frame Time: 0.016667
-0.133579 16.377021 0.203915 4.488387 6.857889 15.659664 -25.134540 8.930296 -1.830141 -2.502268 7.045316 27.119151 0.923222 9.279881 -13.082461 -0.843622 -10.449060 -25.339854 14.622718 6.391916 -46.686618 -3.931956 -15.338577 34.471728 0.156485 -3.995283 -9.691140 1.230003 -3.851827 10.996400 1.661453 -10.685183 17.867640 4.164272 -3.585930 2.656935 -0.188998 6.692716 -7.766885 1.093166 3.312242 4.769348 -69.049737 -48.142550 83.417287 65.597447 -63.837864 -43.272285 2.867488 -5.117291 -28.314248 16.730664 15.826356 0.850036 53.247021 -9.142395 49.633313 -11.529975 28.024669 -7.972379 1.758275 1.240366 -9.879889 -6.573052 2.211381 -2.511278 
-0.126024 16.240447 0.680293 4.093800 6.385278 15.702070 -25.079316 8.803764 -1.810966 -3.327638 8.503116 26.870322 1.944706 9.345860 -11.997821 -0.574409 -10.914480 -25.234469 14.828977 7.246423 -46.514339 -4.873491 -16.215943 37.911036 -0.029186 -2.951166 -13.836737 1.004054 -3.882143 11.066878 1.928349 -10.173314 17.938047 3.737854 -3.137956 2.329052 0.024527 6.565053 -7.808263 0.803318 3.321256 4.651417 -70.294032 -47.525738 84.665612 65.813200 -63.717783 -43.687287 2.547112 -4.655285 -27.776583 17.259269 15.706662 1.026040 53.742772 -9.273702 50.019864 -11.867515 27.397686 -8.582797 2.271173 0.901337 -9.580701 -6.449109 1.651813 -3.173090 
-0.094182 16.171045 1.266244 3.882372 6.049686 15.808392 -24.818513 8.059634 -2.842008 -3.308914 11.722417 28.557604 3.130346 9.173916 -10.515828 -1.983208 -12.005280 -23.587606 15.255016 7.505375 -45.569113 -5.907880 -16.659785 40.533329 -0.189587 -1.816469 -17.514915 0.489941 -4.407971 11.012983 2.572257 -9.753353 17.797742 3.499466 -3.025364 2.174125 0.140875 6.720921 -7.526155 0.525339 3.225927 4.527242 -69.884600 -46.250630 82.444262 66.083189 -63.487036 -45.181905 1.488155 -4.506508 -27.603580 17.970576 15.343008 0.217680 54.775233 -8.845181 50.653105 -12.588293 26.713531 -9.231813 2.619621 0.738699 -10.320780 -7.152139 1.696080 -2.981972 
-0.066316 16.144504 1.905944 3.639675 6.019418 15.962967 -25.557833 6.416699 -5.937104 -0.739323 16.364139 33.009386 2.567296 7.028340 -8.360358 -3.687187 -10.450673 -22.719976 15.658503 7.078956 -44.194880 -6.174308 -17.187224 42.418705 -0.682829 -0.872052 -20.479520 0.501138 -4.361373 10.844742 3.150605 -9.699549 17.672799 3.009648 -2.579550 2.385704 0.580275 6.689122 -8.081958 0.268892 3.382696 4.536050 -68.871817 -43.533681 78.842515 67.366891 -62.085020 -46.521143 0.199224 -4.083517 -28.778134 18.488110 15.340199 1.235932 57.219943 -7.559244 50.268379 -13.406645 25.905123 -9.872967 2.533608 0.640550 -10.722813 -7.652721 1.662717 -2.986096 
-0.032968 16.108769 2.576882 3.109307 5.469071 16.332078 -24.500769 5.454368 -10.296759 2.618378 18.997934 40.022429 0.503541 6.322654 -5.336611 -2.586001 -9.326307 -22.507803 16.777016 6.459695 -42.385564 -6.010680 -16.845319 43.218511 -1.127730 0.384936 -23.875742 0.193464 -4.431636 10.421982 4.368660 -9.045513 17.364807 2.755382 -2.329618 2.563621 0.712090 6.978960 -8.131026 -0.213364 3.289005 4.194079 -66.793732 -39.132269 72.250609 65.336312 -60.490922 -44.460790 -1.138316 -5.444081 -29.662147 17.773804 16.388476 0.729404 59.621362 -6.202867 49.911034 -14.673196 25.738931 -10.290718 2.823117 -0.543932 -12.195273 -8.964885 2.599386 -2.548154 
-0.023152 16.104977 3.256873 2.713785 5.125140 16.208313 -22.596213 3.282384 -16.038182 6.443672 21.758679 49.948377 -0.278005 6.773702 -1.977278 -1.567951 -7.662520 -23.419408 17.883105 5.326253 -39.822815 -5.691504 -16.447423 43.497619 -1.653479 1.322459 -26.330024 0.345257 -4.345825 9.628818 5.014658 -8.603369 17.675057 2.486266 -1.618695 2.813383 1.183802 6.651799 -8.521237 -0.379281 3.510487 4.120788 -67.170494 -34.823977 69.023475 59.804109 -56.132442 -40.775081 -1.153413 -4.869448 -30.237789 16.972016 16.215488 2.102420 62.997206 -4.520582 48.724079 -15.623439 25.716332 -10.246846 2.601794 -1.586793 -12.913339 -9.845092 3.521875 -2.464869 
-0.010052 16.085018 3.961141 1.970343 4.684143 16.477081 -20.816771 2.067776 -22.034003 9.939238 22.743941 59.814644 -1.061766 8.679696 -0.523499 0.260530 -8.719328 -22.290688 19.237227 4.486606 -37.312805 -5.169642 -15.841897 43.319681 -2.375467 1.968862 -28.754805 0.192216 -4.088350 8.812084 6.082593 -7.909427 17.672681 2.147779 -1.368644 2.717201 1.379431 6.944865 -8.592229 -0.562551 3.498125 3.885498 -68.295205 -28.655743 62.875551 46.966688 -52.640490 -32.268908 2.210322 -6.183174 -28.905378 16.956443 17.417148 3.056230 66.198820 -2.303822 47.617450 -16.168000 26.298673 -10.254251 2.557515 -2.834573 -13.913613 -11.428591 3.988924 -2.693612 
-0.017716 16.062190 4.729942 1.384131 4.583387 15.525235 -19.775699 0.647250 -26.919683 13.134647 21.522534 68.088757 -2.995458 9.686036 -1.209388 3.694267 -9.815857 -20.774469 20.504898 2.746159 -33.637226 -4.875696 -15.506891 43.569202 -3.200476 2.428229 -30.160230 0.268142 -3.920130 7.875711 6.876324 -7.421347 18.531090 1.750809 -0.560975 2.620673 1.608182 6.333484 -8.444356 -0.587183 3.772149 3.610237 -71.354538 -23.347908 58.905956 36.061595 -46.756579 -26.235464 3.567826 -6.849419 -27.628410 17.263226 18.679007 5.217674 69.492606 -0.386062 45.775016 -16.955639 27.400083 -9.847066 1.998785 -4.002178 -15.206218 -12.613199 5.002799 -2.892559 
-0.028713 16.048804 5.508076 1.001293 4.482142 15.514411 -18.268307 -1.327204 -32.632878 15.883747 21.145395 73.587928 -3.010943 7.987363 -0.972361 4.065435 -9.457991 -19.899366 21.471926 1.531089 -30.447595 -4.599841 -14.989203 42.953563 -4.177721 2.384068 -31.238724 0.446382 -3.645580 6.836206 7.757460 -6.937426 18.938699 1.581212 0.108467 2.248086 1.445382 5.926769 -8.389914 -0.917219 3.911480 3.424041 -75.043253 -17.988854 54.661365 27.537622 -41.421259 -19.703008 2.007904 -7.693374 -25.484449 18.308994 19.991337 6.929575 71.703260 2.794198 43.428775 -16.806069 27.877594 -9.327617 1.563058 -3.854806 -15.979147 -14.169357 4.586344 -3.309674 
-0.040244 16.021189 6.325689 0.686999 4.430174 14.534552 -16.830237 -2.651105 -36.276979 17.635203 20.131984 77.440576 -2.572511 6.931092 -0.835372 3.444695 -8.126919 -21.001153 22.292813 -0.173889 -26.422585 -4.490848 -14.513371 42.775705 -4.497574 2.081565 -31.241395 0.270244 -3.140981 5.611173 8.682840 -5.989099 19.460722 1.580947 0.691006 2.566120 0.958424 5.296667 -8.519896 -1.048204 3.843979 3.218790 -78.452422 -13.317232 53.368589 20.775838 -35.263052 -15.229676 0.024485 -8.490502 -23.375740 18.401580 20.329102 8.383546 73.140683 6.802153 40.760510 -16.628856 28.234923 -8.614159 1.119538 -3.224787 -16.739736 -15.046303 4.876800 -3.742044 
-0.043209 16.011545 7.153120 0.738825 4.201218 14.336137 -15.784772 -4.562297 -39.803375 18.630908 20.280670 79.067009 -2.398590 5.444343 -0.819593 3.923268 -7.706173 -21.367278 22.705540 -1.599507 -22.709195 -4.426108 -13.736901 41.592140 -4.835221 1.508368 -30.756579 0.389732 -2.678295 4.167237 9.165294 -4.735421 19.480411 2.213776 1.146404 2.800792 -0.246505 4.645734 -9.147879 -1.003939 3.579405 3.317607 -81.072880 -8.580060 52.633065 15.699202 -30.823472 -11.042763 -0.853963 -8.150264 -21.264015 17.254258 21.423727 7.345948 73.557757 12.048467 39.117348 -16.355088 28.288980 -7.728527 1.061933 -1.894087 -17.571493 -16.371526 4.718012 -3.881695 
-0.029378 16.019515 7.980491 0.864444 3.594756 13.855510 -14.756686 -5.539391 -42.757099 18.822551 19.894758 79.974683 -2.072435 4.618798 -0.915464 3.423323 -7.440097 -21.476547 22.790421 -2.717144 -18.605859 -4.470263 -12.986076 40.210173 -4.084002 0.763655 -28.956551 -0.118288 -2.033215 2.638558 9.625962 -3.029112 19.109225 2.518776 1.373542 3.777710 -1.330572 4.505683 -10.095571 -1.001856 2.815679 3.694924 -80.944177 -3.578496 52.704083 13.062529 -28.023166 -7.341629 -1.319187 -6.874266 -20.428456 15.795779 20.989493 6.276849 73.816677 17.679654 38.240422 -16.834986 28.882418 -6.824295 1.165733 -0.736135 -19.262623 -16.668137 5.892589 -3.771655 
